<svg width="240" height="49" viewBox="0 0 240 49" fill="none" xmlns="http://www.w3.org/2000/svg">
<path d="M87.175 15.625V33H84.325V21.1L79.025 33H77.05L71.725 21.1V33H68.875V15.625H71.95L78.05 29.25L84.125 15.625H87.175ZM91.2209 26.05C91.2209 24.6667 91.5042 23.4417 92.0709 22.375C92.6542 21.3083 93.4376 20.4833 94.4209 19.9C95.4209 19.3 96.5209 19 97.7209 19C98.8042 19 99.7459 19.2167 100.546 19.65C101.363 20.0667 102.013 20.5917 102.496 21.225V19.225H105.371V33H102.496V30.95C102.013 31.6 101.354 32.1417 100.521 32.575C99.6876 33.0083 98.7376 33.225 97.6709 33.225C96.4876 33.225 95.4042 32.925 94.4209 32.325C93.4376 31.7083 92.6542 30.8583 92.0709 29.775C91.5042 28.675 91.2209 27.4333 91.2209 26.05ZM102.496 26.1C102.496 25.15 102.296 24.325 101.896 23.625C101.513 22.925 101.004 22.3917 100.371 22.025C99.7376 21.6583 99.0542 21.475 98.3209 21.475C97.5876 21.475 96.9042 21.6583 96.2709 22.025C95.6376 22.375 95.1209 22.9 94.7209 23.6C94.3376 24.2833 94.1459 25.1 94.1459 26.05C94.1459 27 94.3376 27.8333 94.7209 28.55C95.1209 29.2667 95.6376 29.8167 96.2709 30.2C96.9209 30.5667 97.6042 30.75 98.3209 30.75C99.0542 30.75 99.7376 30.5667 100.371 30.2C101.004 29.8333 101.513 29.3 101.896 28.6C102.296 27.8833 102.496 27.05 102.496 26.1ZM113.214 14.5V33H110.364V14.5H113.214ZM119.656 17.4C119.139 17.4 118.706 17.225 118.356 16.875C118.006 16.525 117.831 16.0917 117.831 15.575C117.831 15.0583 118.006 14.625 118.356 14.275C118.706 13.925 119.139 13.75 119.656 13.75C120.156 13.75 120.581 13.925 120.931 14.275C121.281 14.625 121.456 15.0583 121.456 15.575C121.456 16.0917 121.281 16.525 120.931 16.875C120.581 17.225 120.156 17.4 119.656 17.4ZM121.056 19.225V33H118.206V19.225H121.056ZM131.498 26.125L137.848 33H133.998L128.898 27.075V33H126.048V14.5H128.898V25.25L133.898 19.225H137.848L131.498 26.125ZM140.191 26.05C140.191 24.6667 140.474 23.4417 141.041 22.375C141.624 21.3083 142.407 20.4833 143.391 19.9C144.391 19.3 145.491 19 146.691 19C147.774 19 148.716 19.2167 149.516 19.65C150.332 20.0667 150.982 20.5917 151.466 21.225V19.225H154.341V33H151.466V30.95C150.982 31.6 150.324 32.1417 149.491 32.575C148.657 33.0083 147.707 33.225 146.641 33.225C145.457 33.225 144.374 32.925 143.391 32.325C142.407 31.7083 141.624 30.8583 141.041 29.775C140.474 28.675 140.191 27.4333 140.191 26.05ZM151.466 26.1C151.466 25.15 151.266 24.325 150.866 23.625C150.482 22.925 149.974 22.3917 149.341 22.025C148.707 21.6583 148.024 21.475 147.291 21.475C146.557 21.475 145.874 21.6583 145.241 22.025C144.607 22.375 144.091 22.9 143.691 23.6C143.307 24.2833 143.116 25.1 143.116 26.05C143.116 27 143.307 27.8333 143.691 28.55C144.091 29.2667 144.607 29.8167 145.241 30.2C145.891 30.5667 146.574 30.75 147.291 30.75C148.024 30.75 148.707 30.5667 149.341 30.2C149.974 29.8333 150.482 29.3 150.866 28.6C151.266 27.8833 151.466 27.05 151.466 26.1ZM176.378 24.075C177.311 24.2417 178.103 24.7333 178.753 25.55C179.403 26.3667 179.728 27.2917 179.728 28.325C179.728 29.2083 179.495 30.0083 179.028 30.725C178.578 31.425 177.92 31.9833 177.053 32.4C176.186 32.8 175.178 33 174.028 33H167.078V15.625H173.703C174.886 15.625 175.903 15.825 176.753 16.225C177.603 16.625 178.245 17.1667 178.678 17.85C179.111 18.5167 179.328 19.2667 179.328 20.1C179.328 21.1 179.061 21.9333 178.528 22.6C177.995 23.2667 177.278 23.7583 176.378 24.075ZM169.928 22.925H173.453C174.386 22.925 175.111 22.7167 175.628 22.3C176.161 21.8667 176.428 21.25 176.428 20.45C176.428 19.6667 176.161 19.0583 175.628 18.625C175.111 18.175 174.386 17.95 173.453 17.95H169.928V22.925ZM173.778 30.675C174.745 30.675 175.503 30.4417 176.053 29.975C176.603 29.5083 176.878 28.8583 176.878 28.025C176.878 27.175 176.586 26.5 176.003 26C175.42 25.5 174.645 25.25 173.678 25.25H169.928V30.675H173.778ZM190.05 33.225C188.75 33.225 187.575 32.9333 186.525 32.35C185.475 31.75 184.65 30.9167 184.05 29.85C183.45 28.7667 183.15 27.5167 183.15 26.1C183.15 24.7 183.459 23.4583 184.075 22.375C184.692 21.2917 185.534 20.4583 186.6 19.875C187.667 19.2917 188.859 19 190.175 19C191.492 19 192.684 19.2917 193.75 19.875C194.817 20.4583 195.659 21.2917 196.275 22.375C196.892 23.4583 197.2 24.7 197.2 26.1C197.2 27.5 196.884 28.7417 196.25 29.825C195.617 30.9083 194.75 31.75 193.65 32.35C192.567 32.9333 191.367 33.225 190.05 33.225ZM190.05 30.75C190.784 30.75 191.467 30.575 192.1 30.225C192.75 29.875 193.275 29.35 193.675 28.65C194.075 27.95 194.275 27.1 194.275 26.1C194.275 25.1 194.084 24.2583 193.7 23.575C193.317 22.875 192.809 22.35 192.175 22C191.542 21.65 190.859 21.475 190.125 21.475C189.392 21.475 188.709 21.65 188.075 22C187.459 22.35 186.967 22.875 186.6 23.575C186.234 24.2583 186.05 25.1 186.05 26.1C186.05 27.5833 186.425 28.7333 187.175 29.55C187.942 30.35 188.9 30.75 190.05 30.75ZM203.793 30.675H210.043V33H200.493V30.675L206.768 21.55H200.493V19.225H210.043V21.55L203.793 30.675ZM220.26 33.225C218.96 33.225 217.785 32.9333 216.735 32.35C215.685 31.75 214.86 30.9167 214.26 29.85C213.66 28.7667 213.36 27.5167 213.36 26.1C213.36 24.7 213.668 23.4583 214.285 22.375C214.902 21.2917 215.743 20.4583 216.81 19.875C217.877 19.2917 219.068 19 220.385 19C221.702 19 222.893 19.2917 223.96 19.875C225.027 20.4583 225.868 21.2917 226.485 22.375C227.102 23.4583 227.41 24.7 227.41 26.1C227.41 27.5 227.093 28.7417 226.46 29.825C225.827 30.9083 224.96 31.75 223.86 32.35C222.777 32.9333 221.577 33.225 220.26 33.225ZM220.26 30.75C220.993 30.75 221.677 30.575 222.31 30.225C222.96 29.875 223.485 29.35 223.885 28.65C224.285 27.95 224.485 27.1 224.485 26.1C224.485 25.1 224.293 24.2583 223.91 23.575C223.527 22.875 223.018 22.35 222.385 22C221.752 21.65 221.068 21.475 220.335 21.475C219.602 21.475 218.918 21.65 218.285 22C217.668 22.35 217.177 22.875 216.81 23.575C216.443 24.2583 216.26 25.1 216.26 26.1C216.26 27.5833 216.635 28.7333 217.385 29.55C218.152 30.35 219.11 30.75 220.26 30.75ZM234.328 21.225C234.744 20.525 235.294 19.9833 235.978 19.6C236.678 19.2 237.503 19 238.453 19V21.95H237.728C236.611 21.95 235.761 22.2333 235.178 22.8C234.611 23.3667 234.328 24.35 234.328 25.75V33H231.478V19.225H234.328V21.225Z" fill="white"/>
<circle cx="24.5" cy="24.5" r="24.5" fill="url(#paint0_linear_0_66)"/>
<path d="M33.175 16.625V34H30.325V22.1L25.025 34H23.05L17.725 22.1V34H14.875V16.625H17.95L24.05 30.25L30.125 16.625H33.175Z" fill="white"/>
<defs>
<linearGradient id="paint0_linear_0_66" x1="69" y1="-1.43933e-06" x2="-18.5" y2="54.5" gradientUnits="userSpaceOnUse">
<stop stop-color="#A248D9"/>
<stop offset="1" stop-color="#ECCDFF"/>
</linearGradient>
</defs>
</svg>
